<svg width="16" height="12" viewBox="0 0 16 12" fill="none" xmlns="http://www.w3.org/2000/svg">
<path d="M7.50028 4.76753V6.2836H5.99135C5.91814 6.2836 5.85742 6.33896 5.85742 6.4086V7.1586C5.85742 7.22646 5.91814 7.2836 5.99135 7.2836H7.50028V8.79968C7.50028 8.86932 7.55742 8.92646 7.62528 8.92646H8.37528C8.44492 8.92646 8.50028 8.86932 8.50028 8.79968V7.2836H10.0092C10.0824 7.2836 10.1431 7.22646 10.1431 7.1586V6.4086C10.1431 6.33896 10.0824 6.2836 10.0092 6.2836H8.50028V4.76753C8.50028 4.69789 8.44492 4.64075 8.37528 4.64075H7.62528C7.55742 4.64075 7.50028 4.69789 7.50028 4.76753ZM14.5717 2.1836H8.16099L6.06635 0.180033C6.0397 0.155082 6.00464 0.14106 5.96814 0.140747H1.42885C1.11278 0.140747 0.857422 0.396104 0.857422 0.712176V11.2836C0.857422 11.5997 1.11278 11.855 1.42885 11.855H14.5717C14.8878 11.855 15.1431 11.5997 15.1431 11.2836V2.75503C15.1431 2.43896 14.8878 2.1836 14.5717 2.1836ZM13.8574 10.5693H2.14314V1.42646H5.50921L7.64492 3.46932H13.8574V10.5693Z" fill="black" fill-opacity="0.85"/>
</svg>
