<svg width="361" height="81" viewBox="0 0 361 81" fill="none" xmlns="http://www.w3.org/2000/svg">
<path fill-rule="evenodd" clip-rule="evenodd" d="M35.0618 59.6313C42.346 66.3957 52.968 71.427 63.851 71.427C74.8586 71.427 85.3915 66.838 92.5193 59.7459L99.3226 66.515C90.4151 75.3778 77.4451 81 63.851 81C50.1324 81 37.2483 74.7565 28.4971 66.6296L35.0618 59.6313Z" fill="#0DC1D2"/>
<path d="M62.9486 14.2142C65.9836 9.40473 71.323 7 78.9668 7C78.6509 8.54594 76.987 15.3262 76.522 16.9624C72.419 16.9624 69.2154 18.1934 66.911 20.6554C64.6066 23.0601 63.4544 26.5527 63.4544 31.1331V53.8469H52.916V7.73045H62.9486V14.2142Z" fill="#0DC1D2"/>
<path d="M102.942 54.6688C98.3839 54.6688 94.2758 53.6521 90.6179 51.6187C86.96 49.5853 84.09 46.7675 82.0078 43.1655C79.9819 39.5054 78.9689 35.3805 78.9689 30.7908C78.9689 26.2011 79.9819 22.1053 82.0078 18.5032C84.09 14.9012 86.96 12.0835 90.6179 10.0501C94.2758 8.0167 98.3839 7 102.942 7C107.557 7 111.693 8.0167 115.351 10.0501C119.009 12.0835 121.851 14.9012 123.877 18.5032C125.959 22.1053 127 26.2011 127 30.7908C127 35.3805 125.959 39.5054 123.877 43.1655C121.851 46.7675 119.009 49.5853 115.351 51.6187C111.693 53.6521 107.557 54.6688 102.942 54.6688ZM102.942 45.3442C106.825 45.3442 110.033 44.0079 112.565 41.3355C115.098 38.663 116.364 35.1481 116.364 30.7908C116.364 26.4335 115.098 22.9186 112.565 20.2462C110.033 17.5737 106.825 16.2375 102.942 16.2375C99.0592 16.2375 95.8515 17.5737 93.3192 20.2462C90.843 22.9186 89.6049 26.4335 89.6049 30.7908C89.6049 35.1481 90.843 38.663 93.3192 41.3355C95.8515 44.0079 99.0592 45.3442 102.942 45.3442Z" fill="#0DC1D2"/>
<path d="M24.6494 7C28.9797 7 32.8382 7.97913 36.2247 9.9374C39.6667 11.8957 42.3593 14.6603 44.3024 18.2312C46.2455 21.8022 47.217 26.0445 47.217 30.7098C47.217 35.3751 46.2455 39.5598 44.3024 43.1884C42.3593 46.7593 39.6667 49.655 36.2247 51.6133C32.8382 53.5716 28.9797 54.6594 24.6494 54.6594C18.6536 54.6594 13.9069 52.1842 10.4094 48.0372V70.2844H0V7.7338H9.90975V13.566C11.6308 11.3773 13.7404 9.73582 16.2387 8.64149C18.7924 7.54716 21.596 7 24.6494 7ZM23.4836 45.0135C27.3143 45.0135 30.4509 43.6887 32.8937 41.0393C35.3919 38.3899 36.6411 34.9053 36.6411 30.5856C36.6411 26.2659 35.3919 22.7813 32.8937 20.1319C30.4509 17.4825 27.3143 16.1578 23.4836 16.1578C20.9853 16.1578 18.7369 16.7625 16.7383 17.9721C14.7397 19.124 13.1575 20.7943 11.9916 22.9829C10.8258 25.1716 10.2429 27.7058 10.2429 30.5856C10.2429 33.4654 10.8258 35.9997 11.9916 38.1883C13.1575 40.377 14.7397 42.076 16.7383 43.2856C18.7369 44.4375 20.9853 45.0135 23.4836 45.0135Z" fill="#0DC1D2"/>
<path d="M164.01 8.73829V0H173.845V8.73829H164.01ZM141.651 51.2838V22.9917H135V16.259H141.651V16.1873C141.651 11.2213 142.925 7.47291 145.472 4.94215C148.066 2.41138 152.076 0.978877 157.501 0.644627L160.614 0.501375L161.039 7.09091L158.279 7.23416C155.449 7.42516 153.444 8.14142 152.265 9.38292C151.085 10.5767 150.496 12.3673 150.496 14.7548V16.259H173.35V51.2838H164.506V22.9917H150.496V51.2838H141.651Z" fill="#2339FF"/>
<path d="M181.157 51.2838V16.259H189.789V21.7025C190.968 19.697 192.549 18.169 194.53 17.1185C196.558 16.068 198.822 15.5427 201.322 15.5427C209.483 15.5427 213.563 20.3416 213.563 29.9394V51.2838H204.719V30.3692C204.719 27.6474 204.2 25.6658 203.162 24.4242C202.171 23.1827 200.615 22.562 198.492 22.562C195.898 22.562 193.822 23.3976 192.265 25.0689C190.756 26.6924 190.001 28.865 190.001 31.5868V51.2838H181.157Z" fill="#2339FF"/>
<path d="M232.523 52C230.023 52 227.783 51.5225 225.801 50.5675C223.867 49.5647 222.334 48.2277 221.202 46.5565C220.117 44.8852 219.575 42.9991 219.575 40.8981C219.575 38.3196 220.235 36.2902 221.556 34.8099C222.877 33.2819 225.023 32.1837 227.995 31.5152C230.967 30.8467 234.953 30.5124 239.953 30.5124H242.429V29.0083C242.429 26.6208 241.91 24.9017 240.873 23.8512C239.835 22.8007 238.09 22.2755 235.637 22.2755C233.703 22.2755 231.721 22.5859 229.693 23.2066C227.665 23.7796 225.613 24.6869 223.537 25.9284L220.99 19.8402C222.216 18.9807 223.655 18.2406 225.306 17.6198C227.004 16.9513 228.773 16.45 230.613 16.1157C232.5 15.7337 234.269 15.5427 235.92 15.5427C240.967 15.5427 244.717 16.7365 247.17 19.124C249.623 21.4637 250.849 25.1166 250.849 30.0826V51.2838H242.571V45.697C241.769 47.6547 240.495 49.2066 238.75 50.3526C237.005 51.4509 234.929 52 232.523 52ZM234.363 45.8402C236.674 45.8402 238.585 45.0285 240.094 43.405C241.651 41.7815 242.429 39.7282 242.429 37.2452V35.6694H240.024C235.589 35.6694 232.5 36.0276 230.754 36.7438C229.056 37.4123 228.207 38.6538 228.207 40.4683C228.207 42.0441 228.75 43.3333 229.835 44.3361C230.92 45.3388 232.429 45.8402 234.363 45.8402Z" fill="#2339FF"/>
<path d="M258.411 51.2838V16.259H267.044V21.7025C268.223 19.697 269.803 18.169 271.785 17.1185C273.813 16.068 276.077 15.5427 278.577 15.5427C286.738 15.5427 290.818 20.3416 290.818 29.9394V51.2838H281.974V30.3692C281.974 27.6474 281.455 25.6658 280.417 24.4242C279.426 23.1827 277.87 22.562 275.747 22.562C273.152 22.562 271.077 23.3976 269.52 25.0689C268.011 26.6924 267.256 28.865 267.256 31.5868V51.2838H258.411Z" fill="#2339FF"/>
<path d="M314.377 52C310.745 52 307.585 51.2599 304.896 49.7796C302.207 48.2516 300.132 46.1029 298.669 43.3333C297.207 40.5638 296.476 37.3168 296.476 33.5923C296.476 29.8678 297.207 26.6685 298.669 23.9945C300.132 21.2727 302.207 19.1956 304.896 17.7631C307.585 16.2828 310.745 15.5427 314.377 15.5427C316.594 15.5427 318.788 15.9008 320.958 16.6171C323.128 17.3333 324.92 18.3361 326.335 19.6253L323.717 25.8568C322.491 24.7585 321.099 23.9229 319.543 23.3499C318.033 22.7769 316.571 22.4904 315.156 22.4904C312.09 22.4904 309.707 23.4692 308.009 25.427C306.358 27.337 305.533 30.0826 305.533 33.6639C305.533 37.1974 306.358 39.9908 308.009 42.0441C309.707 44.0496 312.09 45.0523 315.156 45.0523C316.524 45.0523 317.986 44.7659 319.543 44.1928C321.099 43.6198 322.491 42.7603 323.717 41.6143L326.335 47.9174C324.92 49.1589 323.104 50.1616 320.887 50.9256C318.717 51.6419 316.547 52 314.377 52Z" fill="#2339FF"/>
<path d="M346.707 52C342.792 52 339.419 51.2599 336.589 49.7796C333.759 48.2994 331.565 46.1983 330.009 43.4766C328.499 40.7548 327.744 37.5317 327.744 33.8072C327.744 30.1782 328.475 27.0028 329.938 24.281C331.447 21.5592 333.499 19.4343 336.094 17.9063C338.735 16.3306 341.731 15.5427 345.08 15.5427C349.986 15.5427 353.854 17.1185 356.684 20.27C359.561 23.4215 361 27.719 361 33.1625V35.8127H336.235C336.896 42.068 340.433 45.1956 346.849 45.1956C348.783 45.1956 350.717 44.9091 352.651 44.3361C354.585 43.7153 356.354 42.7603 357.957 41.4711L360.434 47.4876C358.783 48.8724 356.707 49.9706 354.207 50.7824C351.707 51.5941 349.207 52 346.707 52ZM345.434 21.6309C342.839 21.6309 340.74 22.4426 339.136 24.0661C337.532 25.6896 336.565 27.8861 336.235 30.6556H353.641C353.453 27.7429 352.651 25.5225 351.236 23.9945C349.868 22.4187 347.934 21.6309 345.434 21.6309Z" fill="#2339FF"/>
</svg>
